<mxfile host="app.diagrams.net" modified="2023-08-16T04:26:02.784Z" agent="Mozilla/5.0 (Windows NT 10.0; Win64; x64) AppleWebKit/537.36 (KHTML, like Gecko) Chrome/115.0.0.0 Safari/537.36 Edg/115.0.1901.203" version="21.6.8" etag="BVX-TXDOO1j1JYWgsJo5" type="github">
  <diagram name="Page-1" id="3JGw6h-FGLD1LkS74OxS">
    <mxGraphModel>
      <root>
        <mxCell id="0" />
        <mxCell id="1" parent="0" />
      </root>
    </mxGraphModel>
  </diagram>
</mxfile>
